ModelForces
version=1
nRows=4
nColumns=158
inDegrees=no

This file contains the forces exerted on a model during a simulation.

A force is a generalized force, meaning that it can be either a force (N) or a torque (Nm).

Units are S.I. units (second, meters, Newtons, ...)
Angles are in degrees.

endheader
time	glut_med1_r	glut_med2_r	glut_med3_r	glut_min1_r	glut_min2_r	glut_min3_r	semimem_r	semiten_r	bifemlh_r	bifemsh_r	sar_r	add_long_r	add_brev_r	add_mag1_r	add_mag2_r	add_mag3_r	tfl_r	pect_r	grac_r	glut_max1_r	glut_max2_r	glut_max3_r	iliacus_r	psoas_r	quad_fem_r	gem_r	peri_r	rect_fem_r	vas_med_r	vas_int_r	vas_lat_r	med_gas_r	lat_gas_r	soleus_r	tib_post_r	flex_dig_r	flex_hal_r	tib_ant_r	per_brev_r	per_long_r	per_tert_r	ext_dig_r	ext_hal_r	glut_med1_l	glut_med2_l	glut_med3_l	glut_min1_l	glut_min2_l	glut_min3_l	semimem_l	semiten_l	bifemlh_l	bifemsh_l	sar_l	add_long_l	add_brev_l	add_mag1_l	add_mag2_l	add_mag3_l	tfl_l	pect_l	grac_l	glut_max1_l	glut_max2_l	glut_max3_l	iliacus_l	psoas_l	quad_fem_l	gem_l	peri_l	rect_fem_l	vas_med_l	vas_int_l	vas_lat_l	med_gas_l	lat_gas_l	soleus_l	tib_post_l	flex_dig_l	flex_hal_l	tib_ant_l	per_brev_l	per_long_l	per_tert_l	ext_dig_l	ext_hal_l	ercspn_r	ercspn_l	intobl_r	intobl_l	extobl_r	extobl_l	femur_lat_meniscii_r.femur_lat_r.force.X	femur_lat_meniscii_r.femur_lat_r.force.Y	femur_lat_meniscii_r.femur_lat_r.force.Z	femur_lat_meniscii_r.femur_lat_r.torque.X	femur_lat_meniscii_r.femur_lat_r.torque.Y	femur_lat_meniscii_r.femur_lat_r.torque.Z	femur_lat_meniscii_r.meniscus_lat_r.force.X	femur_lat_meniscii_r.meniscus_lat_r.force.Y	femur_lat_meniscii_r.meniscus_lat_r.force.Z	femur_lat_meniscii_r.meniscus_lat_r.torque.X	femur_lat_meniscii_r.meniscus_lat_r.torque.Y	femur_lat_meniscii_r.meniscus_lat_r.torque.Z	femur_med_meniscii_r.femur_med_r.force.X	femur_med_meniscii_r.femur_med_r.force.Y	femur_med_meniscii_r.femur_med_r.force.Z	femur_med_meniscii_r.femur_med_r.torque.X	femur_med_meniscii_r.femur_med_r.torque.Y	femur_med_meniscii_r.femur_med_r.torque.Z	femur_med_meniscii_r.meniscus_med_r.force.X	femur_med_meniscii_r.meniscus_med_r.force.Y	femur_med_meniscii_r.meniscus_med_r.force.Z	femur_med_meniscii_r.meniscus_med_r.torque.X	femur_med_meniscii_r.meniscus_med_r.torque.Y	femur_med_meniscii_r.meniscus_med_r.torque.Z	femur_med_tibia_r.tibia_upper_r.force.X	femur_med_tibia_r.tibia_upper_r.force.Y	femur_med_tibia_r.tibia_upper_r.force.Z	femur_med_tibia_r.tibia_upper_r.torque.X	femur_med_tibia_r.tibia_upper_r.torque.Y	femur_med_tibia_r.tibia_upper_r.torque.Z	femur_med_tibia_r.femur_med_r.force.X	femur_med_tibia_r.femur_med_r.force.Y	femur_med_tibia_r.femur_med_r.force.Z	femur_med_tibia_r.femur_med_r.torque.X	femur_med_tibia_r.femur_med_r.torque.Y	femur_med_tibia_r.femur_med_r.torque.Z	femur_lat_tibia_r.tibia_upper_r.force.X	femur_lat_tibia_r.tibia_upper_r.force.Y	femur_lat_tibia_r.tibia_upper_r.force.Z	femur_lat_tibia_r.tibia_upper_r.torque.X	femur_lat_tibia_r.tibia_upper_r.torque.Y	femur_lat_tibia_r.tibia_upper_r.torque.Z	femur_lat_tibia_r.femur_lat_r.force.X	femur_lat_tibia_r.femur_lat_r.force.Y	femur_lat_tibia_r.femur_lat_r.force.Z	femur_lat_tibia_r.femur_lat_r.torque.X	femur_lat_tibia_r.femur_lat_r.torque.Y	femur_lat_tibia_r.femur_lat_r.torque.Z	aACL_R	pACL_R	aPCL_R	pPCL_R	aMCL_R	mMCL_R	pMCL_R	aLCL_R	mLCL_R	pLCL_R	aPCL_L	pPCL_L	aMCL_L	aLCL_L	ground_prescribedForce_-80_fx	ground_prescribedForce_-80_fy	ground_prescribedForce_-80_fz
      0.00000000	     37.48087652	     28.28714471	     30.25598133	     13.28977762	     14.47626353	     15.91713841	      0.00000000	     15.74696616	     15.91205108	     25.38325239	      7.34603652	     27.93927808	     20.68957741	     14.51222487	     12.16230296	     19.66717628	     11.82946764	     11.16605282	      6.84760264	     18.12681708	     27.55933735	     20.56469162	     63.94906620	     55.74758807	     18.09791099	      9.16719286	     20.03897647	    134.91243862	     79.35080778	     68.15025371	    107.96901025	     11.76840053	     10.43696042	    152.72720615	     92.44658902	     14.93332009	     15.26895791	     41.82851940	     21.62523106	     46.40594865	      8.86060096	     25.04818486	      7.96045570	     37.48087652	     28.28714471	     30.25598133	     13.28977762	     14.47626353	     15.91713841	     42.06683902	     20.39635155	     37.67631238	     36.01822118	      7.59254209	     27.93927808	     20.68957741	     14.51222487	     12.16230296	     19.66717628	     12.58139899	     11.16605282	      7.78214370	     18.12681708	     27.55933735	     20.56469162	     63.94906620	     55.74758807	     18.09791099	      9.16719286	     20.03897647	     52.59637061	     32.48786114	     37.22481259	     39.87514307	     67.71424671	     31.64857027	    152.72720615	     92.44658902	     14.93332009	     15.26895791	     41.82851940	     21.62523106	     46.40594865	      8.86060096	     25.04818486	      7.96045570	    124.99446086	    124.99446086	     44.97041513	     44.97041513	     60.98287244	     60.98287244	    134.31803728	      3.89186243	      9.17448209	     -3.75597577	      3.27383673	     54.53520610	   -134.31803728	     -3.89186243	     -9.17448209	      0.16446053	     -4.16681269	     -1.57520099	      3.83890831	     -2.20164917	     -2.46562994	      0.95815733	     -0.06403426	      1.54882237	     -3.83890831	      2.20164917	      2.46562994	      0.00147505	      0.11110932	     -0.09673992	  -3917.46870617	   -904.04024558	   1613.97861329	    -31.41794839	     90.72423676	    -25.29643348	   3917.46870617	    904.04024558	  -1613.97861329	    670.91284830	    -66.69392664	   1590.94643950	      0.00000000	      0.00000000	      0.00000000	      0.00000000	      0.00000000	      0.00000000	      0.00000000	      0.00000000	      0.00000000	      0.00000000	      0.00000000	      0.00000000	      5.45110855	      2.57700792	    952.72366576	    575.94644523	      3.07569028	      0.00000000	      0.00000000	      0.00000000	      0.00000000	      0.00000000	      0.00000000	      0.00000000	      0.00000001	      0.00000000	     19.10100000	   -108.32880000	      0.00000000
      0.00049316	     37.47839118	     28.28297677	     30.25226881	     13.28462829	     14.47342158	     15.91603127	      0.00000000	     15.90381964	     16.16718924	     26.97533613	      7.65661376	     27.93590616	     20.67747624	     14.51011068	     12.16104271	     19.66614406	     11.99359948	     11.16283918	      7.08634255	     18.12460056	     27.55602151	     20.56261319	     63.94335604	     55.74431459	     18.09413787	      9.16668216	     20.03853049	    135.84835138	     73.70231783	     68.16208044	    101.61721253	     12.67278039	     10.99854217	    154.23524496	     92.82443057	     14.99455205	     15.33847341	     41.53413070	     21.50735922	     46.32042576	      8.67980974	     24.85722370	      7.90442862	     37.47839118	     28.28297677	     30.25226881	     13.28462829	     14.47342158	     15.91603127	     42.06573481	     20.39485231	     37.67507867	     36.01094185	      7.58902245	     27.93590616	     20.67747624	     14.51011068	     12.16104271	     19.66614406	     12.58114071	     11.16283918	      7.78014358	     18.12460056	     27.55602151	     20.56261319	     63.94335604	     55.74431459	     18.09413787	      9.16668216	     20.03853049	     52.59450135	     32.48512991	     37.22210726	     39.87239084	     67.71316133	     31.64805393	    152.72382815	     92.44573847	     14.93349186	     15.26907369	     41.82675825	     21.62460007	     46.40531934	      8.85993103	     25.04698748	      7.95997521	    124.94960104	    124.94960104	     44.96624445	     44.96624445	     60.97835839	     60.97835839	     39.96280008	    -28.25345951	     99.65917282	    -39.76332391	      2.24441373	     16.60675287	    -39.96280008	     28.25345951	    -99.65917282	      0.40947282	     -5.08202463	     -1.63053225	      1.75841487	     -2.35343168	     -0.40372904	      0.13527869	     -0.02276245	      0.72158494	     -1.75841487	      2.35343168	      0.40372904	      0.01239153	      0.02511029	     -0.09210322	  -2730.75677684	   -536.80050840	    690.20608952	    -14.64627494	     46.98687123	    -21.15970221	   2730.75677684	    536.80050840	   -690.20608952	    288.82287672	    -41.66122101	   1110.06406936	      0.00000000	      0.00000000	      0.00000000	      0.00000000	      0.00000000	      0.00000000	      0.00000000	      0.00000000	      0.00000000	      0.00000000	      0.00000000	      0.00000000	     28.41864504	     16.97101957	   1022.51072426	    737.93465544	    147.16184533	    143.19828202	      0.00000000	      0.00000000	      0.00000000	      0.00000000	      0.00000000	      0.00000000	      0.00000001	      0.00000000	     19.10100000	   -108.32880000	      0.00000000
      0.00098632	     37.47096223	     28.27068313	     30.24127387	     13.27003683	     14.46511246	     15.91272357	      0.00000000	     16.34341907	     16.81249197	     30.66719482	      8.34353974	     27.92591705	     20.64432013	     14.50387346	     12.15729892	     19.66305175	     12.31091847	     11.15357997	      7.64736685	     18.11803626	     27.54619832	     20.55643621	     63.92640791	     55.73451999	     18.08312124	      9.16515494	     20.03718776	    138.42013952	     64.67686354	     69.23055050	     91.34419108	     14.35248699	     12.06613457	    156.60686532	     93.49335190	     15.12662109	     15.48121503	     41.12431217	     21.26999958	     46.13254822	      8.39081330	     24.51151171	      7.80292098	     37.47096223	     28.27068313	     30.24127387	     13.27003683	     14.46511246	     15.91272357	     42.06241273	     20.39037595	     37.67137083	     35.98966519	      7.57917697	     27.92591705	     20.64432013	     14.50387346	     12.15729892	     19.66305175	     12.58036320	     11.15357997	      7.77435066	     18.11803626	     27.54619832	     20.55643621	     63.92640791	     55.73451999	     18.08312124	      9.16515494	     20.03718776	     52.58888575	     32.47699053	     37.21402989	     39.86416879	     67.70989024	     31.64649784	    152.71365772	     92.44317350	     14.93400313	     15.26941607	     41.82147302	     21.62270234	     46.40342181	      8.85793212	     25.04339787	      7.95853644	    124.82186956	    124.82186956	     44.95383121	     44.95383121	     60.96494901	     60.96494901	     27.75335211	    -39.99949682	    106.26563261	    -42.17342291	      2.05419424	     11.80047598	    -27.75335211	     39.99949682	   -106.26563261	      0.16434731	     -4.99533190	     -1.93605778	      1.15516702	     -1.78908902	     -0.11569711	      0.02676143	     -0.01346654	      0.47640455	     -1.15516702	      1.78908902	      0.11569711	      0.01048291	      0.01117516	     -0.06910902	  -1880.16826120	   -295.26696686	    404.47187525	     -8.41661370	     29.52864076	    -17.41663858	   1880.16826120	    295.26696686	   -404.47187525	    168.97580118	    -27.53701282	    765.22228044	      0.00000000	      0.00000000	      0.00000000	      0.00000000	      0.00000000	      0.00000000	      0.00000000	      0.00000000	      0.00000000	      0.00000000	      0.00000000	      0.00000000	     35.55454535	     18.46212842	   1046.83150176	    770.33295316	    178.85211991	    172.06023494	      0.00000000	      0.00000000	      0.00000000	      0.00000000	      0.00000000	      0.00000000	      0.00000001	      0.00000000	     19.10100000	   -108.32880000	      0.00000000
      0.00147948	     37.45863405	     28.25058544	     30.22321726	     13.24721049	     14.45166117	     15.90723762	      0.00000000	     17.00696321	     17.74399300	     35.00103570	      9.05967650	     27.90950682	     20.59427109	     14.49367438	     12.15112935	     19.65790713	     12.57572025	     11.13883003	      8.34698161	     18.10725603	     27.53006020	     20.54625197	     63.89850566	     55.71824762	     18.06531366	      9.16261923	     20.03494121	    142.18924272	     58.05016525	     71.79398958	     83.45720663	     15.72935564	     13.01026858	    157.71530181	     94.09472685	     15.29216904	     15.64407168	     41.10046777	     20.95829977	     45.84221808	      8.19691185	     24.21682268	      7.72272075	     37.45863405	     28.25058544	     30.22321726	     13.24721049	     14.45166117	     15.90723762	     42.05685912	     20.38295704	     37.66517948	     35.95523206	      7.56398679	     27.90950682	     20.59427109	     14.49367438	     12.15112935	     19.65790713	     12.57906255	     11.13883003	      7.76506999	     18.10725603	     27.53006020	     20.54625197	     63.89850566	     55.71824762	     18.06531366	      9.16261923	     20.03494121	     52.57951343	     32.46352910	     37.20064266	     39.85053295	     67.70441102	     31.64389141	    152.69664086	     92.43887400	     14.93484661	     15.26997641	     41.81266275	     21.61953110	     46.40024168	      8.85462167	     25.03742255	      7.95614473	    124.62100804	    124.62100804	     44.93333133	     44.93333133	     60.94285138	     60.94285138	     40.22869761	    -52.30922249	    111.42310190	    -43.98522958	      2.40542465	     17.01615764	    -40.22869761	     52.30922249	   -111.42310190	     -0.10976409	     -5.52502482	     -2.56044532	      1.06252613	     -1.41821194	     -0.01949018	     -0.00737386	     -0.01148602	      0.43623267	     -1.06252613	      1.41821194	      0.01949018	      0.00868078	      0.00723135	     -0.05539209	  -1327.31500248	   -158.10586390	    276.52514176	     -5.39040792	     20.31801149	    -14.20131306	   1327.31500248	    158.10586390	   -276.52514176	    114.95045449	    -18.98118155	    540.85163214	      0.00000000	      0.00000000	      0.00000000	      0.00000000	      0.00000000	      0.00000000	      0.00000000	      0.00000000	      0.00000000	      0.00000000	      0.00000000	      0.00000000	     30.07596935	      7.99867743	   1044.21795491	    736.80756797	    155.19879434	    145.20619421	      0.00000000	      0.00000000	      0.00000000	      0.00000000	      0.00000000	      0.00000000	      0.00000001	      0.00000000	     19.10100000	   -108.32880000	      0.00000000
